# VPXTOOL table OBJ file
# VPXTOOL OBJ file
# numVerts: 40 numFaces: 60
o sw35p
v 22.999969482421875 5.500006198883057 1.1811829805374146
v 22.999969482421875 5.499993801116943 76.68116760253906
v -23.000030517578125 5.499993801116943 76.68116760253906
v -23.000030517578125 5.500006198883057 1.1811749935150146
v -24 -5.499993801116943 0.18116800487041473
v -24 -5.500006198883057 76.68116760253906
v 23.999969482421875 -5.500006198883057 76.68116760253906
v 23.999969482421875 -5.499993801116943 0.18116800487041473
v -24 4.500006198883057 0.18117499351501465
v -24 4.499993801116943 76.68116760253906
v -24 -5.500006198883057 76.68116760253906
v -24 -5.499993801116943 0.18116800487041473
v 23.999969482421875 4.500006198883057 0.18117499351501465
v -24 4.500006198883057 0.18117499351501465
v -24 -5.499993801116943 0.18116800487041473
v 23.999969482421875 -5.499993801116943 0.18116800487041473
v 22.999969482421875 5.499993801116943 76.68116760253906
v -24 4.499993801116943 76.68116760253906
v -23.000030517578125 5.499993801116943 76.68116760253906
v 23.999969482421875 4.499993801116943 76.68116760253906
v -24 -5.500006198883057 76.68116760253906
v -24 4.499993801116943 76.68116760253906
v 23.999969482421875 4.499993801116943 76.68116760253906
v 23.999969482421875 -5.500006198883057 76.68116760253906
v 23.999969482421875 -5.499993801116943 0.18116800487041473
v 23.999969482421875 -5.500006198883057 76.68116760253906
v 23.999969482421875 4.499993801116943 76.68116760253906
v 23.999969482421875 4.500006198883057 0.18117499351501465
v 22.999969482421875 5.500006198883057 1.1811829805374146
v 23.999969482421875 4.500006198883057 0.18117499351501465
v 23.999969482421875 4.499993801116943 76.68116760253906
v 22.999969482421875 5.499993801116943 76.68116760253906
v 22.999969482421875 5.500006198883057 1.1811829805374146
v -24 4.500006198883057 0.18117499351501465
v 23.999969482421875 4.500006198883057 0.18117499351501465
v -23.000030517578125 5.500006198883057 1.1811749935150146
v -23.000030517578125 5.500006198883057 1.1811749935150146
v -23.000030517578125 5.499993801116943 76.68116760253906
v -24 4.499993801116943 76.68116760253906
v -24 4.500006198883057 0.18117499351501465
vt 1 0.11559802293777466
vt 1 1
vt 0.4510200023651123 1
vt 0.4510200023651123 0.11559802293777466
vt 0.054947998374700546 0.56181800365448
vt 0.054947998374700546 0.06469500064849854
vt 0.3793030083179474 0.06469500064849854
vt 0.3793030083179474 0.56181800365448
vt 0.0375090017914772 0.6809380054473877
vt 0.3834809958934784 0.6809389591217041
vt 0.3834809958934784 0.7236909866333008
vt 0.0375090017914772 0.7236909866333008
vt 0.285165011882782 0.7587569952011108
vt 0.041606999933719635 0.7587569952011108
vt 0.041606999933719635 0.8067240118980408
vt 0.285165011882782 0.8067240118980408
vt 0.28049999475479126 0.860821008682251
vt 0.04156399890780449 0.8661069869995117
vt 0.04664799943566322 0.860821008682251
vt 0.2855829894542694 0.8661069869995117
vt 0.02849400043487549 0.9730920195579529
vt 0.02849400043487549 0.9202280044555664
vt 0.2725130021572113 0.9202280044555664
vt 0.2725130021572113 0.9730920195579529
vt 0.041140999644994736 0.5988990068435669
vt 0.3784309923648834 0.5988990068435669
vt 0.3784309923648834 0.6405789852142334
vt 0.041140999644994736 0.6405789852142334
vt 0.2931619882583618 0.8396049737930298
vt 0.2965570092201233 0.8472229838371277
vt 0.036802999675273895 0.8472229838371277
vt 0.036802999675273895 0.8396049737930298
vt 0.08081399649381638 0.8935649991035461
vt 0.21360500156879425 0.8859469890594482
vt 0.07798899710178375 0.8859469890594482
vt 0.21077899634838104 0.8935649991035461
vt 0.2931619882583618 0.8396049737930298
vt 0.036802999675273895 0.8396049737930298
vt 0.036802999675273895 0.8319879770278931
vt 0.2965570092201233 0.8319879770278931
vn -0 1 0
vn -0 1 0
vn -0 1 0
vn -0 1 0
vn 0 -1 -0
vn 0 -1 -0
vn 0 -1 -0
vn 0 -1 -0
vn -1 0 0
vn -1 0 0
vn -1 0 0
vn -1 0 0
vn 0 0 -1
vn 0 0 -1
vn 0 0 -1
vn 0 0 -1
vn 0 0 1
vn 0 0 1
vn 0 0 1
vn 0 0 1
vn 0 0 1
vn 0 0 1
vn 0 0 1
vn 0 0 1
vn 1 0 0
vn 1 0 0
vn 1 0 0
vn 1 0 0
vn 0.707099974155426 0.707099974155426 0
vn 0.707099974155426 0.707099974155426 0
vn 0.707099974155426 0.707099974155426 0
vn 0.707099974155426 0.707099974155426 0
vn 0 0.707099974155426 -0.707099974155426
vn 0 0.707099974155426 -0.707099974155426
vn 0 0.707099974155426 -0.707099974155426
vn 0 0.707099974155426 -0.707099974155426
vn -0.707099974155426 0.707099974155426 0
vn -0.707099974155426 0.707099974155426 0
vn -0.707099974155426 0.707099974155426 0
vn -0.707099974155426 0.707099974155426 0
f 3/3/3 2/2/2 1/1/1
f 4/4/4 3/3/3 1/1/1
f 7/7/7 6/6/6 5/5/5
f 8/8/8 7/7/7 5/5/5
f 11/11/11 10/10/10 9/9/9
f 12/12/12 11/11/11 9/9/9
f 15/15/15 14/14/14 13/13/13
f 16/16/16 15/15/15 13/13/13
f 19/19/19 18/18/18 17/17/17
f 17/17/17 18/18/18 20/20/20
f 23/23/23 22/22/22 21/21/21
f 24/24/24 23/23/23 21/21/21
f 27/27/27 26/26/26 25/25/25
f 28/28/28 27/27/27 25/25/25
f 31/31/31 30/30/30 29/29/29
f 32/32/32 31/31/31 29/29/29
f 35/35/35 34/34/34 33/33/33
f 33/33/33 34/34/34 36/36/36
f 39/39/39 38/38/38 37/37/37
f 40/40/40 39/39/39 37/37/37
